<svg width="128" height="128" viewBox="0 0 128 128" fill="none" xmlns="http://www.w3.org/2000/svg">
<rect x="3" y="3" width="122" height="122" rx="61" fill="#18181B" stroke="#52525B" stroke-width="6"/>
<path d="M33.528 84V43.12H46.8C49.6373 43.12 52.1013 43.6613 54.192 44.744C56.32 45.8267 57.9627 47.3573 59.12 49.336C60.3147 51.2773 60.912 53.5733 60.912 56.224V70.84C60.912 73.4533 60.3147 75.7493 59.12 77.728C57.9627 79.7067 56.32 81.256 54.192 82.376C52.1013 83.4587 49.6373 84 46.8 84H33.528ZM41.928 76.44H46.8C48.48 76.44 49.8427 75.9173 50.888 74.872C51.9707 73.8267 52.512 72.4827 52.512 70.84V56.224C52.512 54.5813 51.9707 53.256 50.888 52.248C49.8427 51.2027 48.48 50.68 46.8 50.68H41.928V76.44ZM80.4901 84.56C77.6155 84.56 75.0955 84.056 72.9301 83.048C70.8021 82.04 69.1408 80.6213 67.9461 78.792C66.7888 76.9253 66.2101 74.7413 66.2101 72.24H74.3861C74.3861 73.7707 74.9275 75.0027 76.0101 75.936C77.1301 76.832 78.6235 77.28 80.4901 77.28C82.3195 77.28 83.7381 76.8507 84.7461 75.992C85.7915 75.096 86.3141 73.92 86.3141 72.464C86.3141 71.3067 85.9781 70.28 85.3061 69.384C84.6341 68.4507 83.6448 67.8347 82.3381 67.536L77.3541 66.36C74.1435 65.6133 71.5861 64.176 69.6821 62.048C67.8155 59.8827 66.8821 57.3067 66.8821 54.32C66.8821 50.6613 68.0581 47.7867 70.4101 45.696C72.7995 43.6053 76.0475 42.56 80.1541 42.56C84.2608 42.56 87.5275 43.624 89.9541 45.752C92.3808 47.8427 93.5941 50.68 93.5941 54.264H85.4181C85.4181 52.8453 84.9515 51.744 84.0181 50.96C83.0848 50.1387 81.7968 49.728 80.1541 49.728C78.5488 49.728 77.2981 50.12 76.4021 50.904C75.5061 51.688 75.0581 52.7333 75.0581 54.04C75.0581 56.168 76.3461 57.5307 78.9221 58.128L84.0741 59.304C87.2848 60.0133 89.8235 61.5627 91.6901 63.952C93.5941 66.304 94.5461 69.1413 94.5461 72.464C94.5461 74.8907 93.9675 77.0187 92.8101 78.848C91.6901 80.6773 90.0661 82.096 87.9381 83.104C85.8475 84.0747 83.3648 84.56 80.4901 84.56Z" fill="white"/>
</svg>
